HIERARCHY
ROOT mixamorig:Hips
{
	OFFSET 0.000000 201.639420 0.000000
	CHANNELS 6 Xposition Yposition Zposition Xrotation Yrotation Zrotation
	JOINT mixamorig:Spine
	{
		OFFSET 0.006200 19.524994 -2.481800
		CHANNELS 3 Xrotation Yrotation Zrotation
		JOINT mixamorig:Spine1
		{
			OFFSET -0.000900 22.835007 -2.825400
			CHANNELS 3 Xrotation Yrotation Zrotation
			JOINT mixamorig:Spine2
			{
				OFFSET -0.020600 26.552490 -3.193300
				CHANNELS 3 Xrotation Yrotation Zrotation
				JOINT mixamorig:Neck
				{
					OFFSET -0.060000 30.701813 1.352200
					CHANNELS 3 Xrotation Yrotation Zrotation
					JOINT mixamorig:Head
					{
						OFFSET -0.087200 22.547607 3.670900
						CHANNELS 3 Xrotation Yrotation Zrotation
						JOINT mixamorig:HeadTop_End
						{
							OFFSET -0.830600 40.355194 7.893500
							CHANNELS 3 Xrotation Yrotation Zrotation
							End Site
							{
								OFFSET 0.000000 30.592346 0.000000
							}
						}
						JOINT mixamorig:RightEye
						{
							OFFSET -6.302100 18.118591 16.197100
							CHANNELS 3 Xrotation Yrotation Zrotation
							End Site
							{
								OFFSET 0.000000 30.592346 0.000000
							}
						}
						JOINT mixamorig:LeftEye
						{
							OFFSET 6.741500 18.382690 16.401899
							CHANNELS 3 Xrotation Yrotation Zrotation
							End Site
							{
								OFFSET 0.000000 30.592346 0.000000
							}
						}
					}
				}
				JOINT mixamorig:LeftShoulder
				{
					OFFSET 11.924900 18.230499 1.425400
					CHANNELS 3 Xrotation Yrotation Zrotation
					JOINT mixamorig:LeftArm
					{
						OFFSET 25.435989 -0.697632 -5.229300
						CHANNELS 3 Xrotation Yrotation Zrotation
						JOINT mixamorig:LeftForeArm
						{
							OFFSET 54.684776 0.000000 0.000000
							CHANNELS 3 Xrotation Yrotation Zrotation
							JOINT mixamorig:LeftHand
							{
								OFFSET 55.098175 0.000000 0.000000
								CHANNELS 3 Xrotation Yrotation Zrotation
								JOINT mixamorig:LeftHandMiddle1
								{
									OFFSET 23.369751 0.000000 0.000000
									CHANNELS 3 Xrotation Yrotation Zrotation
									JOINT mixamorig:LeftHandMiddle2
									{
										OFFSET 6.378677 0.000000 0.000000
										CHANNELS 3 Xrotation Yrotation Zrotation
										JOINT mixamorig:LeftHandMiddle3
										{
											OFFSET 6.148331 0.000000 0.000000
											CHANNELS 3 Xrotation Yrotation Zrotation
											JOINT mixamorig:LeftHandMiddle4
											{
												OFFSET 6.582504 0.000000 0.000000
												CHANNELS 3 Xrotation Yrotation Zrotation
												End Site
												{
													OFFSET -1.168900 6.395691 1.028606
												}
											}
										}
									}
								}
								JOINT mixamorig:LeftHandThumb1
								{
									OFFSET 7.235672 -3.848206 5.434273
									CHANNELS 3 Xrotation Yrotation Zrotation
									JOINT mixamorig:LeftHandThumb2
									{
										OFFSET 6.568451 -3.792297 3.792300
										CHANNELS 3 Xrotation Yrotation Zrotation
										JOINT mixamorig:LeftHandThumb3
										{
											OFFSET 6.063080 -3.500519 3.500518
											CHANNELS 3 Xrotation Yrotation Zrotation
											JOINT mixamorig:LeftHandThumb4
											{
												OFFSET 4.793182 -2.767334 2.767349
												CHANNELS 3 Xrotation Yrotation Zrotation
												End Site
												{
													OFFSET 0.101639 6.054260 1.275483
												}
											}
										}
									}
								}
								JOINT mixamorig:LeftHandIndex1
								{
									OFFSET 23.101074 -0.309540 4.992809
									CHANNELS 3 Xrotation Yrotation Zrotation
									JOINT mixamorig:LeftHandIndex2
									{
										OFFSET 6.226883 0.000000 0.000000
										CHANNELS 3 Xrotation Yrotation Zrotation
										JOINT mixamorig:LeftHandIndex3
										{
											OFFSET 6.094330 0.000000 0.000000
											CHANNELS 3 Xrotation Yrotation Zrotation
											JOINT mixamorig:LeftHandIndex4
											{
												OFFSET 5.482605 0.000000 0.000000
												CHANNELS 3 Xrotation Yrotation Zrotation
												End Site
												{
													OFFSET -1.427902 5.233032 0.797164
												}
											}
										}
									}
								}
								JOINT mixamorig:LeftHandRing1
								{
									OFFSET 22.299240 0.021149 -3.964172
									CHANNELS 3 Xrotation Yrotation Zrotation
									JOINT mixamorig:LeftHandRing2
									{
										OFFSET 6.321869 0.000000 0.000000
										CHANNELS 3 Xrotation Yrotation Zrotation
										JOINT mixamorig:LeftHandRing3
										{
											OFFSET 5.899796 0.000000 0.000000
											CHANNELS 3 Xrotation Yrotation Zrotation
											JOINT mixamorig:LeftHandRing4
											{
												OFFSET 6.517899 0.000000 0.000000
												CHANNELS 3 Xrotation Yrotation Zrotation
												End Site
												{
													OFFSET -1.637299 6.232208 0.980890
												}
											}
										}
									}
								}
								JOINT mixamorig:LeftHandPinky1
								{
									OFFSET 20.463791 -0.302338 -8.562233
									CHANNELS 3 Xrotation Yrotation Zrotation
									JOINT mixamorig:LeftHandPinky2
									{
										OFFSET 6.908646 0.000000 0.000000
										CHANNELS 3 Xrotation Yrotation Zrotation
										JOINT mixamorig:LeftHandPinky3
										{
											OFFSET 4.622849 0.000000 0.000000
											CHANNELS 3 Xrotation Yrotation Zrotation
											JOINT mixamorig:LeftHandPinky4
											{
												OFFSET 5.216080 0.000000 0.000000
												CHANNELS 3 Xrotation Yrotation Zrotation
												End Site
												{
													OFFSET -0.606308 5.116241 0.814926
												}
											}
										}
									}
								}
							}
						}
					}
				}
				JOINT mixamorig:RightShoulder
				{
					OFFSET -12.001300 18.284088 1.348900
					CHANNELS 3 Xrotation Yrotation Zrotation
					JOINT mixamorig:RightArm
					{
						OFFSET -25.308500 -0.751312 -5.164599
						CHANNELS 3 Xrotation Yrotation Zrotation
						JOINT mixamorig:RightForeArm
						{
							OFFSET -54.684429 0.000000 0.000000
							CHANNELS 3 Xrotation Yrotation Zrotation
							JOINT mixamorig:RightHand
							{
								OFFSET -55.150291 0.000000 0.000000
								CHANNELS 3 Xrotation Yrotation Zrotation
								JOINT mixamorig:RightHandMiddle1
								{
									OFFSET -23.317566 0.000000 0.000000
									CHANNELS 3 Xrotation Yrotation Zrotation
									JOINT mixamorig:RightHandMiddle2
									{
										OFFSET -6.378403 0.000000 0.000000
										CHANNELS 3 Xrotation Yrotation Zrotation
										JOINT mixamorig:RightHandMiddle3
										{
											OFFSET -6.148193 0.000000 0.000000
											CHANNELS 3 Xrotation Yrotation Zrotation
											JOINT mixamorig:RightHandMiddle4
											{
												OFFSET -6.583389 0.000000 0.000000
												CHANNELS 3 Xrotation Yrotation Zrotation
												End Site
												{
													OFFSET 1.171692 6.395905 1.029786
												}
											}
										}
									}
								}
								JOINT mixamorig:RightHandThumb1
								{
									OFFSET -7.190521 -3.860474 5.435846
									CHANNELS 3 Xrotation Yrotation Zrotation
									JOINT mixamorig:RightHandThumb2
									{
										OFFSET -6.567429 -3.791718 3.791708
										CHANNELS 3 Xrotation Yrotation Zrotation
										JOINT mixamorig:RightHandThumb3
										{
											OFFSET -6.062469 -3.500153 3.500166
											CHANNELS 3 Xrotation Yrotation Zrotation
											JOINT mixamorig:RightHandThumb4
											{
												OFFSET -4.792618 -2.767029 2.767022
												CHANNELS 3 Xrotation Yrotation Zrotation
												End Site
												{
													OFFSET -0.100327 6.053253 1.276754
												}
											}
										}
									}
								}
								JOINT mixamorig:RightHandIndex1
								{
									OFFSET -23.048981 -0.310791 4.992554
									CHANNELS 3 Xrotation Yrotation Zrotation
									JOINT mixamorig:RightHandIndex2
									{
										OFFSET -6.227539 0.000000 0.000000
										CHANNELS 3 Xrotation Yrotation Zrotation
										JOINT mixamorig:RightHandIndex3
										{
											OFFSET -6.095047 0.000000 0.000000
											CHANNELS 3 Xrotation Yrotation Zrotation
											JOINT mixamorig:RightHandIndex4
											{
												OFFSET -5.484772 0.000000 0.000000
												CHANNELS 3 Xrotation Yrotation Zrotation
												End Site
												{
													OFFSET 1.420593 5.237305 0.797056
												}
											}
										}
									}
								}
								JOINT mixamorig:RightHandRing1
								{
									OFFSET -22.246323 0.020569 -3.963762
									CHANNELS 3 Xrotation Yrotation Zrotation
									JOINT mixamorig:RightHandRing2
									{
										OFFSET -6.322128 0.000000 0.000000
										CHANNELS 3 Xrotation Yrotation Zrotation
										JOINT mixamorig:RightHandRing3
										{
											OFFSET -5.900024 0.000000 0.000000
											CHANNELS 3 Xrotation Yrotation Zrotation
											JOINT mixamorig:RightHandRing4
											{
												OFFSET -6.518356 0.000000 0.000000
												CHANNELS 3 Xrotation Yrotation Zrotation
												End Site
												{
													OFFSET 1.636398 6.232697 0.982186
												}
											}
										}
									}
								}
								JOINT mixamorig:RightHandPinky1
								{
									OFFSET -20.411011 -0.303314 -8.561701
									CHANNELS 3 Xrotation Yrotation Zrotation
									JOINT mixamorig:RightHandPinky2
									{
										OFFSET -6.907349 0.000000 0.000000
										CHANNELS 3 Xrotation Yrotation Zrotation
										JOINT mixamorig:RightHandPinky3
										{
											OFFSET -4.623840 0.000000 0.000000
											CHANNELS 3 Xrotation Yrotation Zrotation
											JOINT mixamorig:RightHandPinky4
											{
												OFFSET -5.218353 0.000000 0.000000
												CHANNELS 3 Xrotation Yrotation Zrotation
												End Site
												{
													OFFSET 0.602097 5.118835 0.816273
												}
											}
										}
									}
								}
							}
						}
					}
				}
			}
		}
	}
	JOINT mixamorig:LeftUpLeg
	{
		OFFSET 18.168400 -13.561905 -0.039000
		CHANNELS 3 Xrotation Yrotation Zrotation
		JOINT mixamorig:LeftLeg
		{
			OFFSET 0.577358 -80.825211 -3.695000
			CHANNELS 3 Xrotation Yrotation Zrotation
			JOINT mixamorig:LeftFoot
			{
				OFFSET -0.577356 -83.370262 -6.520700
				CHANNELS 3 Xrotation Yrotation Zrotation
				JOINT mixamorig:LeftToeBase
				{
					OFFSET 0.750401 -20.798306 25.135401
					CHANNELS 3 Xrotation Yrotation Zrotation
					JOINT mixamorig:LeftToe_End
					{
						OFFSET -0.000500 0.001200 19.917799
						CHANNELS 3 Xrotation Yrotation Zrotation
						End Site
						{
							OFFSET 0.000000 19.917805 0.000000
						}
					}
				}
			}
		}
	}
	JOINT mixamorig:RightUpLeg
	{
		OFFSET -18.162500 -13.585098 -0.041000
		CHANNELS 3 Xrotation Yrotation Zrotation
		JOINT mixamorig:RightLeg
		{
			OFFSET -0.595024 -80.945297 -3.631900
			CHANNELS 3 Xrotation Yrotation Zrotation
			JOINT mixamorig:RightFoot
			{
				OFFSET 0.595024 -83.218193 -6.561200
				CHANNELS 3 Xrotation Yrotation Zrotation
				JOINT mixamorig:RightToeBase
				{
					OFFSET -0.753601 -20.807106 25.115000
					CHANNELS 3 Xrotation Yrotation Zrotation
					JOINT mixamorig:RightToe_End
					{
						OFFSET 0.000299 0.001700 19.918200
						CHANNELS 3 Xrotation Yrotation Zrotation
						End Site
						{
							OFFSET 0.000000 19.918203 0.000000
						}
					}
				}
			}
		}
	}
}
MOTION
Frames: 5
Frame Time: 0.033333
-24.588936 43.974854 870.776184 365.504268 59.409675 -42.588121 -9.871642 -2.046641 6.930881 29.648034 -5.346518 13.261550 15.340603 -10.875430 1.772040 3.303731 -10.850382 3.118130 -25.194913 -18.380095 3.365809 -0.000000 0.000000 -0.000000 -0.000000 0.000000 -0.000000 -0.000000 0.000000 -0.000000 -1.031654 -9.800584 -5.586572 26.744707 -17.760840 -19.475919 0.000009 -47.968104 0.000018 45.358303 -2.942943 57.085874 0.063956 2.356713 -0.182848 0.000001 -0.000008 -0.000025 0.160575 -1.363596 13.431682 -0.000000 -0.000001 0.000000 -19.522784 -15.038408 7.459063 4.250885 36.543944 8.388814 -16.495265 8.471642 17.040243 0.000001 -0.000001 -0.000001 -0.397213 -13.196466 -3.118665 0.000104 0.034780 -0.339473 0.198057 -1.511916 14.925352 -0.000002 0.000000 -0.000000 0.050649 11.022564 0.532551 0.000170 0.044576 -0.435022 0.198053 -1.511895 14.925348 -0.000002 -0.000001 -0.000002 -3.984279 22.443896 3.939392 0.000668 0.088656 -0.865223 0.121239 -1.186917 11.664374 0.000000 0.000002 0.000000 2.732871 7.561370 20.500500 -40.673476 14.874065 35.915430 0.000002 24.983369 0.000001 3.605570 13.785138 4.043738 0.021088 -2.386637 7.568201 0.011407 -0.326142 4.006877 0.011434 -0.326403 4.010043 0.000002 0.000000 -0.000002 -5.005004 8.656563 -4.152247 15.622258 -26.181160 -10.895031 2.611698 -1.393753 -26.837645 -0.000001 -0.000001 -0.000002 0.158828 -0.735670 -4.619848 0.012689 -0.343856 4.224961 0.005114 -0.218272 2.680646 -0.000000 0.000000 -0.000001 0.312114 -3.828089 19.359505 0.035976 -0.578299 7.117591 0.022895 -0.461696 5.676948 -0.000000 -0.000001 0.000004 1.818601 -17.081215 20.999487 0.138518 -1.128580 13.994418 0.037915 -0.593708 7.308309 0.000000 0.000000 0.000000 -40.513424 43.470032 -29.626099 95.087742 -6.781676 2.041658 -7.510387 -3.486832 5.595419 10.180254 0.000007 -0.000004 0.000001 -0.000000 0.000000 -114.437436 6.799625 -57.082049 93.548545 8.125436 -5.792009 1.162053 28.716526 -2.574729 -1.830303 -0.000016 -0.000004 -0.000001 0.000000 -0.000002 
-25.218212 48.827393 888.796204 376.196110 62.862896 -42.375006 -6.645095 -1.595071 7.850041 27.089031 -5.488629 12.803283 15.211075 -12.086023 2.082422 3.304748 -16.029880 9.440565 -27.060624 -17.635309 -4.319218 0.000000 0.000000 0.000001 0.000000 0.000000 0.000001 0.000000 0.000000 0.000001 3.082642 -6.690808 -0.742531 16.354217 -29.340416 -27.580026 -0.000003 -27.169965 -0.000017 46.560184 -11.367036 60.788144 0.063694 2.277935 -0.190912 0.000002 -0.000007 -0.000003 0.160575 -1.363594 13.431680 0.000001 -0.000000 0.000000 -19.525653 -15.038475 7.459163 4.250890 36.543978 8.388816 -16.495271 8.471631 17.040234 0.000000 0.000003 0.000001 -0.398308 -13.196392 -3.118916 0.000099 0.034760 -0.339135 0.198060 -1.511907 14.925355 -0.000001 0.000001 -0.000002 0.050643 11.023098 0.532603 0.000174 0.044537 -0.434592 0.198053 -1.511902 14.925348 0.000000 -0.000001 0.000002 -11.450216 19.103482 -0.847648 0.000668 0.088671 -0.865218 0.121237 -1.186915 11.664374 0.000000 -0.000002 0.000000 5.183716 3.356552 23.675872 -36.117190 4.094950 37.457406 -0.000011 27.888656 -0.000001 3.405112 9.446848 4.720748 0.071096 -2.772142 8.002546 0.033388 -0.557246 6.857147 0.013139 -0.350043 4.300941 0.000003 0.000001 -0.000001 -6.954774 8.732724 -4.218964 16.423656 -29.480022 -8.622427 2.417366 -2.042910 -28.105195 0.000002 -0.000003 -0.000000 0.083974 -1.732250 -2.650940 0.027224 -0.503348 6.191267 0.021764 -0.450155 5.534548 -0.000000 -0.000002 0.000003 0.344188 -3.916311 20.513655 0.034520 -0.566558 6.972424 0.036878 -0.585576 7.207526 -0.000002 0.000000 0.000000 1.825408 -16.847227 21.154238 0.142598 -1.144780 14.199611 0.050923 -0.687621 8.471979 -0.000001 -0.000000 0.000000 -38.468325 46.494167 -32.919476 109.054536 -1.604333 2.172716 -4.780379 -14.573201 6.583299 10.204904 0.000008 0.000001 0.000000 0.000000 -0.000000 -109.854406 12.466147 -54.703613 88.751499 4.903504 -1.192127 20.256447 20.145612 5.705212 0.156539 0.000015 0.000015 -0.000000 0.000002 -0.000000 
-26.644600 56.036148 908.575684 383.144926 65.316040 -41.370876 -2.818522 -1.219145 8.991226 24.215201 -5.672333 11.897520 15.055945 -13.273826 2.646160 3.017349 -17.820672 11.693411 -27.690085 -18.086163 -7.359494 -0.000000 0.000000 -0.000002 -0.000000 0.000000 -0.000002 -0.000000 0.000000 -0.000002 7.910660 -1.361978 5.545347 0.602195 -43.961454 -40.355551 -0.000014 -7.989545 0.000022 51.727191 -11.453911 34.781570 0.399333 0.062587 34.198282 0.016777 0.443622 -4.333120 0.055710 -0.806852 7.899098 0.000001 0.000001 -0.000003 -19.642903 -14.929634 7.076279 -5.490885 24.597058 36.141236 -16.537315 9.374669 17.889416 0.000002 0.000002 0.000000 9.181253 -13.257638 32.976242 0.012741 0.386465 -3.774055 0.000045 -0.023031 0.224764 -0.000000 -0.000000 0.000000 -4.311931 7.127070 34.394644 0.012723 0.386290 -3.772321 0.000053 -0.025880 0.252605 -0.000000 -0.000002 0.000005 -13.946073 14.707062 37.647753 0.018505 0.465723 -4.549670 0.014244 -0.408805 3.992443 0.000000 -0.000002 -0.000001 7.228032 -0.944830 21.188609 -27.746062 -6.968402 42.808238 -0.000006 30.504479 0.000027 6.605455 9.409521 9.039712 0.141932 -3.216345 10.542541 0.089396 -0.909043 11.231664 0.027451 -0.505406 6.216665 0.000003 0.000001 -0.000000 -8.670802 9.030716 -4.328909 18.177855 -33.367339 -4.860878 2.106686 -3.618440 -29.431251 -0.000006 -0.000003 -0.000000 0.115142 -2.655852 1.509830 0.065629 -0.779931 9.619669 0.072957 -0.821970 10.143845 -0.000003 -0.000000 0.000000 0.430016 -4.129015 23.334587 0.057807 -0.732202 9.026136 0.077326 -0.845997 10.443658 0.000002 -0.000001 0.000001 2.244003 -16.569689 22.970775 0.174025 -1.262482 15.695773 0.096663 -0.944939 11.681579 0.000001 -0.000000 0.000000 -38.382760 43.732974 -31.783548 120.239019 -2.106371 2.118312 19.167208 -18.334384 16.368178 10.100076 -0.015155 0.463700 0.000000 0.000000 -0.000000 -108.594824 22.455796 -53.121253 97.932994 1.006491 1.570887 27.118380 7.169399 8.980326 2.160255 -0.000008 0.000006 0.000000 -0.000001 -0.000000 
-28.479683 68.488190 929.288513 385.998114 66.515367 -38.591303 1.307621 -0.845368 10.307480 21.183041 -5.853181 10.705033 14.832635 -14.341946 3.300164 2.563131 -18.074356 12.352836 -27.889495 -18.747986 -8.543780 -0.000001 -0.000000 0.000001 -0.000001 -0.000000 0.000001 -0.000001 -0.000000 0.000001 9.572704 2.789324 9.181568 -1.185502 -45.437796 -45.443052 0.000001 -15.996528 0.000011 27.257429 -10.367868 13.145097 0.412809 -1.045125 6.333643 0.000000 -0.000005 -0.000015 0.013461 -0.397257 3.879600 -0.000001 -0.000001 0.000000 -19.799853 -14.777657 6.553240 5.569586 37.967027 -0.549160 -15.014023 3.709109 13.349046 0.000000 0.000001 0.000000 8.492766 -2.217597 10.273759 0.000002 -0.000011 -0.000022 0.016470 -0.439450 4.292330 -0.000002 0.000000 -0.000000 -0.112555 3.450112 7.048889 0.000003 0.000009 -0.000091 0.018577 0.466663 -4.558720 0.000001 -0.000002 -0.000002 -5.372306 7.080002 -0.571727 -0.000003 0.000013 -0.000010 0.000169 0.045043 -0.439551 -0.000002 -0.000000 0.000000 8.434105 -4.671813 18.396221 -19.333948 -15.043560 48.467815 0.000010 29.132413 -0.000009 8.689827 11.900931 14.200680 0.264269 -3.703556 14.889782 0.201873 -1.357659 16.913825 0.064352 -0.772332 9.525264 -0.000001 0.000001 -0.000001 -10.187722 9.512593 -4.467812 21.358978 -37.568209 0.594096 1.630330 -6.071634 -30.837805 -0.000004 0.000003 0.000001 0.296211 -3.497281 7.555501 0.144638 -1.152851 14.302014 0.186663 -1.306562 16.258943 0.000002 -0.000001 0.000000 0.578897 -4.440824 27.585958 0.118969 -1.047048 12.965080 0.162040 -1.219047 15.142538 -0.000003 0.000001 0.000000 2.981176 -16.225157 26.202532 0.235979 -1.465127 18.298751 0.195577 -1.336771 16.645704 0.000004 -0.000001 0.000000 -45.324411 33.176483 -20.636201 126.491033 3.204366 2.742215 36.757462 -19.794353 11.582003 23.471409 -1.263398 -8.511421 -0.000000 -0.000001 0.000001 -110.892349 24.463128 -50.216053 110.930502 3.307103 2.195341 14.679982 -2.310622 8.481638 2.725032 0.000008 -0.000008 -0.000000 0.000002 -0.000000 
-29.616276 82.591675 949.949219 386.782083 66.631535 -34.929622 5.432003 -0.435086 11.600831 18.153302 -5.986795 9.387065 14.482291 -15.194386 3.877398 2.084874 -17.436534 12.295013 -27.856442 -19.304198 -8.820972 0.000000 0.000000 0.000001 0.000000 0.000000 0.000001 0.000000 0.000000 0.000001 4.023174 0.078770 4.896148 12.755734 -26.049530 -43.858981 -0.000005 -35.736130 -0.000014 14.068952 -3.412918 11.427425 0.102753 -0.142379 0.780354 0.026666 0.558994 -5.463395 0.000344 0.063918 -0.623639 -0.000000 0.000000 -0.000000 -19.799853 -14.777644 6.553237 8.872767 40.167762 -3.741091 -15.421555 5.713976 14.930751 0.000000 -0.000002 0.000001 6.939140 0.083976 4.077808 0.019500 0.477981 -4.669502 0.003761 0.210105 -2.050703 -0.000002 0.000002 0.000002 0.052884 4.137393 0.447174 0.020527 0.490566 -4.792775 0.079370 0.962054 -9.431482 -0.000000 -0.000000 0.000002 -4.540866 8.507376 -5.448934 0.014648 0.414430 -4.047579 0.033786 0.628992 -6.149913 -0.000002 0.000003 0.000001 9.329918 -8.086491 18.068845 -13.146461 -22.366969 52.677885 0.000000 27.922150 -0.000007 7.981989 10.406639 15.417641 0.457551 -4.214782 20.745981 0.393110 -1.874468 23.687538 0.138535 -1.128636 13.995244 -0.000001 0.000000 -0.000004 -11.540528 10.142763 -4.624834 26.418145 -41.604134 7.911929 0.970798 -9.341966 -32.248041 -0.000001 0.000000 0.000000 0.631574 -4.233552 15.177741 0.282283 -1.598266 20.030493 0.391288 -1.870263 23.631128 0.000003 0.000002 -0.000003 0.802691 -4.822419 33.032116 0.240540 -1.478839 18.476186 0.311745 -1.676871 21.061672 -0.000000 0.000002 0.000001 3.937773 -15.779660 30.601419 0.334461 -1.734689 21.824669 0.373285 -1.828625 23.073801 0.000000 0.000002 0.000001 -45.702732 18.116621 -10.519505 125.014947 1.713517 3.723324 41.930333 -13.594541 9.257413 32.542791 -2.764626 -14.892258 0.000001 0.000000 0.000002 -110.610351 18.980829 -47.510372 120.084725 2.637303 2.232140 -2.450058 -5.735396 4.961571 2.766092 -0.000003 0.000006 0.000000 -0.000000 -0.000000 
